<!DOCTYPE svg PUBLIC "-//W3C//DTD SVG 1.1//EN" "http://www.w3.org/Graphics/SVG/1.1/DTD/svg11.dtd">
<!-- Uploaded to: SVG Repo, www.svgrepo.com, Transformed by: SVG Repo Mixer Tools -->
<svg width="256px" height="256px" viewBox="-1.92 -1.92 27.84 27.84" fill="none" xmlns="http://www.w3.org/2000/svg" stroke="#ffffff">
<g id="SVGRepo_bgCarrier" stroke-width="0" transform="translate(0,0), scale(1)">
<rect x="-1.92" y="-1.92" width="27.84" height="27.84" rx="13.92" fill="#ffffff" strokewidth="0"/>
</g>
<g id="SVGRepo_tracerCarrier" stroke-linecap="round" stroke-linejoin="round" stroke="#fff5f5" stroke-width="0.8640000000000001"> <path d="M12.37 8.87988H17.62" stroke="#292D32" stroke-width="1.2" stroke-linecap="round" stroke-linejoin="round"/> <path d="M6.38 8.87988L7.13 9.62988L9.38 7.37988" stroke="#292D32" stroke-width="1.2" stroke-linecap="round" stroke-linejoin="round"/> <path d="M12.37 15.8799H17.62" stroke="#292D32" stroke-width="1.2" stroke-linecap="round" stroke-linejoin="round"/> <path d="M6.38 15.8799L7.13 16.6299L9.38 14.3799" stroke="#292D32" stroke-width="1.2" stroke-linecap="round" stroke-linejoin="round"/> <path d="M9 22H15C20 22 22 20 22 15V9C22 4 20 2 15 2H9C4 2 2 4 2 9V15C2 20 4 22 9 22Z" stroke="#292D32" stroke-width="1.2" stroke-linecap="round" stroke-linejoin="round"/> </g>
<g id="SVGRepo_iconCarrier"> <path d="M12.37 8.87988H17.62" stroke="#292D32" stroke-width="1.2" stroke-linecap="round" stroke-linejoin="round"/> <path d="M6.38 8.87988L7.13 9.62988L9.38 7.37988" stroke="#292D32" stroke-width="1.2" stroke-linecap="round" stroke-linejoin="round"/> <path d="M12.37 15.8799H17.62" stroke="#292D32" stroke-width="1.2" stroke-linecap="round" stroke-linejoin="round"/> <path d="M6.38 15.8799L7.13 16.6299L9.38 14.3799" stroke="#292D32" stroke-width="1.2" stroke-linecap="round" stroke-linejoin="round"/> <path d="M9 22H15C20 22 22 20 22 15V9C22 4 20 2 15 2H9C4 2 2 4 2 9V15C2 20 4 22 9 22Z" stroke="#292D32" stroke-width="1.2" stroke-linecap="round" stroke-linejoin="round"/> </g>
</svg>